Format                                   : Matroska
Format version                           : Version 2
File size                                : 1.46 GiB
Duration                                 : 2h 17mn
Overall bit rate                         : 1 522 Kbps
Movie name                               : Carry On Jatta [2012].720p.DVDRip.x264.Punjabi.6Ch.by K@rtik [ExD Exclusive]
Format                                   : AVC
Format/Info                              : Advanced Video Codec
Format profile                           : High@L3.1
Format settings, CABAC                   : Yes
Format settings, ReFrames                : 4 frames
Muxing mode                              : Header stripping
Codec ID                                 : V_MPEG4/ISO/AVC
Duration                                 : 2h 17mn
Bit rate                                 : 1 073 Kbps
Width                                    : 1 280 pixels
Height                                   : 544 pixels
Display aspect ratio                     : 2.35:1
Frame rate                               : 29.970 fps
Stream size                              : 1.00 GiB (69%)
Title                                    : K@rtik
Codec ID                                 : A_AC3
Duration                                 : 2h 17mn
Bit rate mode                            : Constant
Bit rate                                 : 448 Kbps
Channel(s)                               : 6 channels
Channel positions                        : Front: L C R, Side: L R, LFE
Sampling rate                            : 48.0 KHz
Bit depth                                : 16 bits
Compression mode                         : Lossy
Stream size                              : 440 MiB 
http://img210.imageshack.us/img210/5512/exdp.jpg 
http://img268.imageshack.us/img268/6225/14184303.png 
http://img27.imageshack.us/img27/729/90217189.png 
http://img805.imageshack.us/img805/6730/89885033.png 
http://img845.imageshack.us/img845/7753/16158621.png 
http://img811.imageshack.us/img811/7069/74767569.png 
http://img94.imageshack.us/img94/5816/60487224.png 
http://img401.imageshack.us/img401/9518/32076758.png 
http://img692.imageshack.us/img692/3143/77815961.png 
http://img853.imageshack.us/img853/1025/94148115.png
